Patient4_TMGait_0pt7_01_left_21_EMG.mot
version=1
nRows=30
nColumns=33
inDegrees=no
endheader
time	1LAddLong	2LGlutMax	3LGlutMed	4LIliopsoas	5LSemiMemb	6LBicFemLong	7LRecFem	8LVastMed	9LVastLat	10LGasMed	11LTibAnt	12lTibPost	13LPeroneusLong	14LSol	15LExtDigLong	16LFlexDigLong	17RAddLong	18RGlutMax	19RGlutMed	20RIliopsoas	21RSemiMemb	22RBicFemLong	23RRecFem	24RVastMed	25RVastLat	26RGasMed	27RTibAnt	28RTibPost	29RPeroneusLong	30RSol	31RExtDigLong	32RFlexDigLong
24.09	0.010529	0.40268	0.024261	0.008698	-0.019836	0.003052	0.17853	-0.000153	0.15869	-0.036621	0.036621	0.014648	0.025177	-0.13092	-0.34637	-0.020447	-0.012665	-0.19562	0.099487	-0.011444	0.12253	-0.12054	-0.021667	-0.092926	0.089722	0.024719	-0.004425	0.10452	-0.034485	0.33447	-0.003357	-0.010223
24.091	-0.006561	0.40741	0.018005	0.004272	-0.026245	-0.007629	0.17654	0.008698	0.18967	-0.023956	-0.003815	0.0177	0.11444	-0.23529	-0.16617	-0.021667	-0.000305	-0.072174	0.076904	-0.045471	0.014343	-0.25848	-0.041046	-0.1445	0.15854	0.13962	-0.023651	0.21072	-0.17807	0.52582	-0.001373	-0.000458
24.092	-0.000763	0.47089	0.013733	0.00946	-0.029297	-0.014191	0.18662	0.006104	0.22369	-0.018311	0.004883	0.01236	0.13275	-0.20004	-0.016479	-0.014801	-0.002594	-0.00824	0.012207	-0.022278	-0.015564	-0.28427	-0.21896	-0.14099	0.1918	0.19333	-0.067596	-0.009918	-0.22537	0.61645	-0.002289	-0.00061
24.093	0.005798	0.47333	-0.007172	0.00473	-0.015717	-0.048523	0.15335	0.007477	0.2359	0.028229	0.042725	0.017242	0.054626	-0.15564	-0.1358	-0.016785	-0.016022	0.073242	0.018463	-0.01236	-0.029907	-0.31555	-0.19058	-0.10147	0.016479	0.14893	-0.010986	-0.02533	-0.35889	0.33844	0.001373	0.001068
24.094	0.003052	0.47485	-0.015259	-0.001831	-0.008087	-0.052948	0.15335	0.006866	0.2475	0.010071	0.098877	0.024109	0.008392	-0.16266	0.011139	-0.010681	-0.003052	0.018311	0.06546	-0.017242	-0.044556	-0.29663	-0.19653	-0.10254	-0.12985	0.10666	-0.41428	0.13886	-0.16281	0.26947	0.000305	0.00351
24.095	0.003967	0.47028	0.007172	0.003662	-0.002747	-0.029907	0.17273	-0.002594	0.25391	0.001526	0.093689	0.011749	0.014191	-0.007629	0.0354	-0.010071	0.007477	-0.001526	0.009613	0.040741	-0.083923	-0.2417	-0.17029	0.049133	-0.043182	0.059509	-0.32013	0.1413	-0.09079	-0.22614	-0.001831	-0.002594
24.096	0.00473	0.45013	-0.01236	0.006866	-0.009613	-0.03479	0.15305	0.007172	0.25665	0.011139	0.077057	0.011597	0.076294	-0.007477	0.14008	-0.013123	0.011292	0.016632	-0.089569	0.013123	-0.11017	-0.11536	-0.04837	0.11169	0.029449	-0.002289	-0.079193	0.056763	-0.077972	-0.38025	0.002289	-0.002136
24.097	0.006561	0.48645	-0.00061	0.007477	-0.00885	-0.036316	0.14481	0.011902	0.2562	0.044861	-0.018616	0.016022	0.11505	-0.047913	0.44708	-0.014343	0.013885	-0.040588	-0.15854	0.007629	-0.13947	-0.016937	-0.036926	0.089874	-0.024261	0.076599	0.13092	-0.13931	-0.092163	-0.52933	-0.000458	-0.006256
24.098	0.005035	0.54184	-0.008545	0.00946	-0.020294	-0.03067	0.14313	0.002289	0.27496	0.035706	-0.089874	0.012665	0.053558	0.003967	0.010681	-0.013275	0.000916	-0.00061	-0.11337	-0.036011	-0.24612	-0.028687	-0.067749	0.064392	-0.010071	0.088501	0.35996	0.006409	-0.11795	-0.49545	0.001526	0.006104
24.099	0.006561	0.52353	-0.033569	0.006104	-0.022583	-0.047302	0.099335	0.003967	0.28183	0.031281	-0.06012	0.007019	-0.023041	0.08316	-0.004578	-0.000916	0.006561	-0.046844	-0.079498	-0.059357	-0.23468	0.21042	0.030365	0.072021	0.004425	0.029144	0.43121	0.12558	-0.21118	-0.33737	-0.000305	-0.001526
24.1	0.006866	0.56595	-0.016632	0.009003	-0.021362	-0.045319	0.10147	0.001221	0.28091	-0.033569	-0.024109	0.011444	-0.008087	0.11093	0.14877	0.001984	0.016479	0.02121	0.037994	-0.030212	0.013885	0.26199	0.035553	-0.016785	0.018005	0.005798	0.54352	0.027161	-0.24628	-0.26489	0.001831	-0.003815
24.101	-0.007477	0.58975	-0.02243	0.010223	-0.018005	-0.044708	0.067596	-0.008087	0.29694	-0.095367	-0.005646	0.018158	0.056305	0.13062	0.050812	-0.00412	0.020752	0.095215	0.062866	0.009308	0.3093	0.075073	-0.018768	-0.072632	0.041351	-0.01297	0.62439	0.005188	-0.25696	-0.42252	-0.002136	-0.006104
24.102	-0.000153	0.55893	-0.079651	0.001984	-0.004272	-0.041656	0.047607	0.000916	0.29938	-0.054016	0.097656	0.011749	0.030212	0.066223	-0.11643	0.009003	0.046387	0.13733	0.063629	0.00061	0.19775	0.083008	-0.028992	-0.071716	0.052032	-0.050964	0.62225	0.011902	-0.17792	-0.33997	-0.002747	-0.005951
24.103	0.009613	0.48782	-0.11353	0.000458	-0.010834	-0.027313	0.025787	0.009308	0.2948	0.001526	0.1004	0.00946	-0.011292	-0.040894	0.054626	0.000305	0.020599	0.15137	-0.084686	0.04364	-0.47058	0.20783	-0.034332	-0.10727	0.036316	-0.060272	0.51666	0.010986	-0.14297	-0.13855	0.003357	-0.00061
24.104	0.005188	0.40939	-0.097046	-0.011597	0.000305	-0.024872	0.012054	0.00885	0.29159	0.053711	0.022583	0.010223	-0.032959	-0.084839	0.43686	0.007935	-0.014801	0.16434	0.011444	-0.003662	-0.56778	0.18616	-0.058594	-0.082092	0.019531	-0.047913	0.64896	-0.023804	-0.1593	0.036316	-0.006561	0.003052
24.105	0.002747	0.34836	-0.054626	-0.011292	-0.029449	-0.054169	0.019684	-0.006104	0.29587	0.027466	-0.26306	0.010071	0.016937	-0.057068	0.1416	-0.000153	-0.006104	0.22964	0.13275	-0.041504	0.017548	0.15045	0.01297	-0.050507	-0.00412	-0.11032	0.94559	-0.063171	-0.053253	0.006714	-0.005646	-0.010071
24.106	0.006409	0.29739	0.047302	0.002441	-0.03952	-0.071869	-0.005646	-0.006104	0.28168	0.005493	-0.16861	0.007019	0.017548	-0.013428	-0.3685	0.005646	-0.001068	0.27161	0.29526	-0.048218	0.26093	0.068512	0.077209	-0.000763	-0.009155	-0.044098	-0.2124	-0.032654	0.19943	-0.10391	-0.00412	-0.008698
24.107	0.014801	0.23499	0.091553	0.020905	-0.018311	-0.084534	-0.007477	0.007324	0.27618	-0.010071	-0.048828	0.007324	-0.028839	0.020905	-0.18036	0.005035	-0.006409	0.28244	0.22553	0.006866	0.034485	0.082397	0.013275	0.062408	0.002594	0.040894	-0.7959	-0.029602	0.03952	-0.26352	-0.000916	-0.004272
24.108	0.007477	0.16266	0.066833	0.01358	-0.023651	-0.090637	-0.017853	-0.001373	0.27283	-0.07843	-0.028076	0.006714	-0.027008	0.081329	-0.17029	0.001526	0.019531	0.30991	0.1947	0.053101	0.091705	-0.072479	0.041504	0.084991	0.005798	0.18616	-1.0103	-0.024109	0.012207	-0.32333	-0.00061	-0.002441
24.109	0.007629	0.10773	0.015564	0.013123	-0.037994	-0.091095	-0.015411	0.00061	0.27313	-0.10178	-0.043182	0.01709	0.047302	0.10452	-0.19104	0.009308	0.046692	0.439	0.057678	0.056458	0.25375	-0.23956	0.042267	0.043488	0.011292	0.14969	-1.114	-0.02655	0.06958	-0.37689	0.000153	-0.010681
24.11	0.006409	0.070343	0.019989	0.003357	-0.010071	-0.1033	-0.026398	-0.004272	0.26474	-0.084381	0.058136	0.006561	0.025787	0.11841	0.021667	0.006866	0.031891	0.44571	0.023193	0.023041	0.20386	-0.22003	0.065002	-0.063324	0.001678	0.10788	-0.75516	-0.034332	0.21347	-0.27527	0.001984	-0.016785
24.111	0.002441	0.063171	0.027313	0.002594	-0.005951	-0.10239	-0.039063	-0.00412	0.25604	-0.039673	0.2034	0.010681	-0.074615	0.10651	0.5423	0.005646	0.016479	0.46906	0.21316	-0.011139	-0.089722	-0.045471	0.046234	-0.13397	-0.030518	0.050201	-0.65185	-0.036316	0.12329	-0.13107	0	-0.00824
24.112	0.003967	0.058441	0.039215	0.00824	-0.008698	-0.096893	-0.049896	-0.001068	0.25009	-0.055542	0.18677	0.021362	-0.072479	0.097198	-0.29098	0.014801	0.025482	0.45395	0.22095	-0.043182	-0.1944	0.027924	0.12848	-0.17425	-0.068207	-0.018921	-0.21027	-0.040741	-0.27542	-0.10834	0.004425	-0.006409
24.113	0.018158	0.041504	0.016632	0.005646	-0.023804	-0.093689	-0.051422	-0.007782	0.25177	-0.035858	0.19608	0.006714	-0.005798	-0.006714	-0.37689	0.010681	0.008087	0.4982	-0.11185	-0.015259	-0.32532	0.054779	0.18677	-0.16312	-0.088196	-0.042267	0.20203	-0.007935	-0.25482	-0.17014	-0.003052	-0.014954
24.114	0.006714	0.063324	-0.005646	0.008087	-0.029144	-0.112	-0.05188	-0.000916	0.24765	-0.010681	0.15091	-0.001221	0.0354	-0.066071	-0.31052	0.005951	-0.058289	0.56869	-0.20615	-0.005798	-0.27832	0.012054	0.15671	0.047455	-0.080872	-0.035095	0.22659	-0.039978	-0.07782	-0.095825	0.001678	-0.007935
24.115	0.005341	0.068512	0.026703	0.010986	-0.029144	-0.13031	-0.046234	-0.009613	0.2388	-0.033264	0.006866	0.003357	0.063782	-0.028229	-0.3154	0.016327	-0.06012	0.56305	-0.011902	-0.018005	0.13916	0.082703	0.13825	0.4245	0.068817	-0.086823	0.081177	-0.002289	0.037231	0.14557	-0.001221	-0.006866
24.116	0.009308	0.043945	0.028839	0.010681	-0.003815	-0.14236	-0.050049	-0.014343	0.23529	-0.006714	-0.055237	0.001526	0.11398	-0.054016	-0.32166	0.012665	-0.089874	0.51437	-0.066376	-0.068207	0.010071	0.18616	0.22675	0.58487	0.25162	-0.053253	0.075989	0.028839	0.086365	0.19363	-0.000763	-0.010071
24.117	0.008392	-0.022278	-0.012054	0.009155	-0.018616	-0.16266	-0.049286	-0.005493	0.23102	0.031281	0.022125	0.009155	0.08728	-0.2182	-0.00946	0.015869	-0.082703	0.46081	-0.12116	-0.10422	-0.040894	0.17654	0.065613	0.29862	0.24918	0.050201	0.055695	-0.031433	0.12695	0.027771	-0.001373	-0.016327
24.118	0.021362	-0.000153	-0.011749	0.004272	0.01297	-0.14801	-0.052795	-0.006866	0.21545	0.003967	-0.049133	0.004272	0.12283	-0.17975	0.14267	0.01236	-0.043488	0.39444	-0.10712	-0.13992	0.01358	0.032959	0.1564	0.067596	0.17807	0.094299	-0.075531	-0.016937	0.15488	-0.040131	-0.001373	-0.012512
24.119	0.026703	-0.014496	-0.030365	0.019989	0.007172	-0.11856	-0.055084	-0.019073	0.22629	0.011292	-0.11322	0.005798	0.12726	-0.13031	0.20798	0.005341	-0.035248	0.44556	-0.20615	-0.06485	0.037842	-0.078735	0.22553	-0.094299	0.15823	0.05249	-0.052185	-0.1738	0.1886	0.39429	0.001526	-0.001373
